<svg width="16" height="16" viewBox="0 0 16 16" fill="none" xmlns="http://www.w3.org/2000/svg">
<path fill-rule="evenodd" clip-rule="evenodd" d="M14.8185 0H1.1822C0.529238 0 0 0.513087 0 1.14636V14.8532C0 15.4865 0.529424 16 1.1822 16H14.8185C15.4714 16 16 15.4861 16 14.8532V1.14636C16 0.513273 15.4714 0 14.8185 0ZM4.85074 13.3931H2.43326V6.16928H4.85074V13.3931ZM3.62599 5.18239H3.64224C4.48451 5.18239 5.00899 4.62813 5.00899 3.93388C4.99292 3.22565 4.48433 2.68641 3.65749 2.68641C2.83074 2.68641 2.28978 3.22579 2.28978 3.93388C2.28978 4.62798 2.8153 5.18239 3.62599 5.18239ZM13.5651 13.3931H11.1484V9.5281C11.1484 8.55694 10.7982 7.89428 9.92424 7.89428C9.25565 7.89428 8.85877 8.34134 8.68449 8.77296C8.61991 8.92711 8.60392 9.14272 8.60392 9.35803V13.3929H6.18766C6.18766 13.3929 6.21928 6.84668 6.18766 6.16917H8.60429V7.1933C8.9251 6.70119 9.49838 5.99921 10.7817 5.99921C12.3724 5.99921 13.5651 7.03108 13.5651 9.25093V13.3931ZM8.64888 7.20553C8.63348 7.22683 8.61798 7.24873 8.60688 7.26693H8.64888V7.20553Z" fill="#5F5A76"/>
</svg>
