<svg width="20" height="16" viewBox="0 0 20 16" fill="none" xmlns="http://www.w3.org/2000/svg">
<path fill-rule="evenodd" clip-rule="evenodd" d="M4.20752 6.73229C2.93522 5.9468 2.1726 5.47441 1.9196 5.31536C1.45837 5.03699 1.02297 4.65413 0.613846 4.16691C0.20468 3.67972 0 3.22718 0 2.80957C0 2.29256 0.15437 1.86169 0.463111 1.51697C0.77189 1.17232 1.21276 1 1.78564 1H18.2142C18.6977 1 19.1163 1.15571 19.4697 1.46731C19.8232 1.77883 20 2.15339 20 2.59096C20 3.11458 19.8178 3.61508 19.453 4.09217C19.0884 4.56947 18.6347 4.97722 18.0915 5.31515C15.294 7.04534 13.5528 8.12257 12.8684 8.54673C12.794 8.59322 12.6358 8.69415 12.394 8.85007C12.1521 9.00596 11.9514 9.13192 11.7914 9.22801C11.6314 9.32403 11.4379 9.43168 11.2111 9.5511C10.9843 9.67017 10.7702 9.75992 10.5693 9.81927C10.3684 9.87906 10.1823 9.90874 10.0112 9.90874H9.99998H9.98876C9.81766 9.90874 9.63167 9.8791 9.43074 9.81927C9.22985 9.75992 9.0159 9.67028 8.78894 9.5511C8.5619 9.43182 8.36848 9.32406 8.20848 9.22801C8.0486 9.13192 7.84767 9.00596 7.60585 8.85007C7.36408 8.69429 7.20603 8.59322 7.13164 8.54673C6.45455 8.12257 5.47985 7.51777 4.20752 6.73229ZM13.3259 9.80965C14.5906 8.99422 16.4435 7.85065 18.8838 6.37918C19.3081 6.12073 19.68 5.83219 20 5.51415V13.4089C20 13.8467 19.8253 14.2209 19.4755 14.5326C19.1258 14.8442 18.7053 15 18.2144 15H1.78575C1.29465 15 0.874192 14.8442 0.524523 14.5326C0.174776 14.221 0 13.8466 0 13.4089V5.51415C0.327387 5.83891 0.703129 6.12745 1.12734 6.37918C3.82075 8.0098 5.66968 9.15345 6.6742 9.80965C7.09826 10.088 7.44241 10.3052 7.70647 10.4609C7.97061 10.6167 8.32224 10.7758 8.76115 10.9381C9.20006 11.1006 9.60934 11.1817 9.9888 11.1817H10H10.0114C10.3909 11.1817 10.8 11.1006 11.2389 10.9381C11.678 10.7758 12.0294 10.6167 12.2936 10.4609C12.5578 10.3052 12.9018 10.088 13.3259 9.80965Z" fill="#A09BB6"/>
</svg>
