<svg width="13" height="16" viewBox="0 0 13 16" fill="none" xmlns="http://www.w3.org/2000/svg">
<path fill-rule="evenodd" clip-rule="evenodd" d="M9.37931 3.86209C9.37931 5.99505 7.89716 7.72414 6.06901 7.72414C4.24077 7.72414 2.75862 5.99505 2.75862 3.86209C2.75862 1.72909 3.24533 0 6.06901 0C8.8927 0 9.37931 1.72909 9.37931 3.86209ZM7.82858 8.27586C11.5812 8.94183 12.0716 9.99391 12.1311 13.6861C12.1349 13.9223 12.1369 13.9631 12.1379 13.9421C12.1378 14.0047 12.1377 14.0967 12.1377 14.229C12.1377 14.229 11.2442 16 6.0691 16C0.893919 16 0.000501613 14.229 0.000501613 14.229C0.000501613 14.023 0.000228006 13.9049 0 13.8411C0.00100323 13.8752 0.00360249 13.8597 0.00921143 13.5662C0.0776132 9.97104 0.597831 8.93456 4.30954 8.27586C4.30954 8.27586 4.83787 8.93775 6.0691 8.93775C7.30033 8.93775 7.82858 8.27586 7.82858 8.27586Z" fill="#A09BB6"/>
</svg>
