<svg width="45" height="58" viewBox="0 0 45 58" fill="none" xmlns="http://www.w3.org/2000/svg">
<path fill-rule="evenodd" clip-rule="evenodd" d="M33.732 14.183C33.732 22.016 28.5039 28.3658 22.0552 28.3658C15.6063 28.3658 10.3782 22.016 10.3782 14.183C10.3782 6.34984 12.095 0 22.0552 0C32.0155 0 33.732 6.34984 33.732 14.183ZM28.449 29.4541C42.0861 31.9152 43.8682 35.8034 44.0845 49.4486C44.0982 50.3215 44.1055 50.4724 44.1092 50.3945C44.1087 50.6259 44.1083 50.9659 44.1083 51.4549C44.1083 51.4549 40.8613 58 22.0551 58C3.2485 58 0.00182286 51.4549 0.00182286 51.4549C0.00182286 50.6938 0.000828571 50.2573 0 50.0214C0.00364571 50.1473 0.0130914 50.0903 0.0334743 49.0054C0.282046 35.7189 2.17251 31.8884 15.6608 29.4541C15.6608 29.4541 17.5808 31.9002 22.0551 31.9002C26.5294 31.9002 28.449 29.4541 28.449 29.4541Z" fill="#F3F3F6"/>
</svg>
