<svg width="13" height="16" viewBox="0 0 13 16" fill="none" xmlns="http://www.w3.org/2000/svg">
<path fill-rule="evenodd" clip-rule="evenodd" d="M9.89896 3.86209C9.89896 5.99505 8.41682 7.72414 6.58867 7.72414C4.76042 7.72414 3.27827 5.99505 3.27827 3.86209C3.27827 1.72909 3.76498 0 6.58867 0C9.41235 0 9.89896 1.72909 9.89896 3.86209ZM8.34823 8.27586C12.1009 8.94183 12.5913 9.99391 12.6508 13.6861C12.6546 13.9223 12.6566 13.9631 12.6576 13.9421C12.6574 14.0047 12.6574 14.0967 12.6574 14.229C12.6574 14.229 11.7638 16 6.58876 16C1.41357 16 0.520155 14.229 0.520155 14.229C0.520155 14.023 0.519881 13.9049 0.519653 13.8411C0.520657 13.8752 0.523256 13.8597 0.528865 13.5662C0.597266 9.97104 1.11748 8.93456 4.82919 8.27586C4.82919 8.27586 5.35752 8.93775 6.58876 8.93775C7.81999 8.93775 8.34823 8.27586 8.34823 8.27586Z" fill="#A09BB6"/>
</svg>
