<svg width="44" height="58" viewBox="0 0 44 58" fill="none" xmlns="http://www.w3.org/2000/svg">
<path fill-rule="evenodd" clip-rule="evenodd" d="M33.6485 14.183C33.6485 22.016 28.4333 28.3658 22.0007 28.3658C15.5677 28.3658 10.3525 22.016 10.3525 14.183C10.3525 6.34984 12.0651 0 22.0007 0C31.9363 0 33.6485 6.34984 33.6485 14.183ZM28.3786 29.4541C41.982 31.9152 43.7596 35.8034 43.9754 49.4486C43.9891 50.3215 43.9964 50.4724 44 50.3945C43.9995 50.6259 43.9992 50.9659 43.9992 51.4549C43.9992 51.4549 40.7602 58 22.0005 58C3.24046 58 0.00181835 51.4549 0.00181835 51.4549C0.00181835 50.6938 0.000826521 50.2573 0 50.0214C0.00363669 50.1473 0.013059 50.0903 0.0333914 49.0054C0.281348 35.7189 2.16714 31.8884 15.6221 29.4541C15.6221 29.4541 17.5373 31.9002 22.0005 31.9002C26.4637 31.9002 28.3786 29.4541 28.3786 29.4541Z" fill="#F3F3F6"/>
</svg>
