<svg width="67" height="58" viewBox="0 0 67 58" fill="none" xmlns="http://www.w3.org/2000/svg">
<path opacity="0.1" fill-rule="evenodd" clip-rule="evenodd" d="M0 0H30.9395V23.8113C30.9395 32.5777 29.114 39.5077 25.4628 44.6017C21.8117 49.6957 15.5765 54.1617 6.7569 58L0 45.348C5.50038 42.7892 9.28184 40.2423 11.3445 37.7071C13.4071 35.172 14.557 32.1749 14.7941 28.7157H0V0ZM36.0605 0H67V23.8113C67 32.5777 65.1745 39.5077 61.5234 44.6017C57.8722 49.6957 51.637 54.1617 42.8174 58L36.0605 45.348C41.5609 42.7892 45.3423 40.2423 47.405 37.7071C49.4676 35.172 50.6175 32.1749 50.8546 28.7157H36.0605V0Z" fill="#8D88A5"/>
</svg>
