<svg width="20" height="16" viewBox="0 0 20 16" fill="none" xmlns="http://www.w3.org/2000/svg">
<path fill-rule="evenodd" clip-rule="evenodd" d="M19.6923 1.89255C18.9675 2.21371 18.1898 2.43152 17.3727 2.52876C18.207 2.02914 18.8457 1.23669 19.1484 0.29532C18.3657 0.757993 17.5019 1.09395 16.5814 1.27607C15.8444 0.489766 14.7959 0 13.6331 0C11.4021 0 9.59321 1.80889 9.59321 4.03863C9.59321 4.35486 9.62889 4.66373 9.69782 4.95908C6.34092 4.79048 3.36426 3.18217 1.37203 0.738301C1.02377 1.3339 0.825661 2.02789 0.825661 2.7687C0.825661 4.1703 1.53938 5.40699 2.62226 6.13052C1.96022 6.10838 1.33756 5.92626 0.792454 5.62354V5.67399C0.792454 7.63054 2.18543 9.26346 4.03245 9.63511C3.69405 9.72617 3.3372 9.77662 2.96804 9.77662C2.70718 9.77662 2.45491 9.75078 2.20757 9.70155C2.72191 11.3074 4.21335 12.4752 5.98041 12.5072C4.59851 13.5901 2.85606 14.2336 0.963507 14.2336C0.637426 14.2336 0.316235 14.214 0 14.1783C1.78798 15.3264 3.91066 15.9958 6.19207 15.9958C13.6233 15.9958 17.6853 9.84062 17.6853 4.50256L17.6718 3.97958C18.4654 3.41349 19.1521 2.70225 19.6923 1.89255Z" fill="#5F5A76"/>
</svg>
