<svg width="16" height="16" viewBox="0 0 16 16" fill="none" xmlns="http://www.w3.org/2000/svg">
<path fill-rule="evenodd" clip-rule="evenodd" d="M14.3775 3.48398L14.1425 3.55848L12.891 3.66998L12.5375 4.23448L12.281 4.15298L11.285 3.25498L11.1405 2.78798L10.947 2.28998L10.321 1.72848L9.58248 1.58398L9.56548 1.92198L10.289 2.62798L10.643 3.04498L10.245 3.25298L9.92098 3.15748L9.43548 2.95498L9.45198 2.56348L8.81498 2.30148L8.60348 3.22198L7.96148 3.36748L8.02498 3.88098L8.86148 4.04198L9.00598 3.22148L9.69648 3.32348L10.0175 3.51148H10.5325L10.885 4.21748L11.8195 5.16548L11.751 5.53398L10.9975 5.43798L9.69548 6.09548L8.75798 7.21998L8.63598 7.71798H8.29948L7.67248 7.42898L7.06348 7.71798L7.21498 8.36048L7.47998 8.05498L7.94598 8.04048L7.91348 8.61748L8.29948 8.73048L8.68498 9.16348L9.31448 8.98648L10.0335 9.09998L10.8685 9.32448L11.2855 9.37348L11.9925 10.176L13.357 10.9785L12.4745 12.6645L11.543 13.0975L11.1895 14.061L9.84148 14.961L9.69798 15.48C13.144 14.65 15.7075 11.5545 15.7075 7.85348C15.7065 6.23698 15.2165 4.73248 14.3775 3.48398Z" fill="#5F5A76"/>
<path fill-rule="evenodd" clip-rule="evenodd" d="M8.75751 11.9586L8.18551 10.8981L8.71051 9.80411L8.18551 9.64711L7.59601 9.05511L6.29001 8.76211L5.85651 7.85511V8.39361H5.66551L4.54001 6.86761V5.61411L3.71501 4.27261L2.40501 4.50611H1.52251L1.07851 4.21511L1.64501 3.76611L1.08001 3.89661C0.399014 5.05961 0.00201416 6.40911 0.00201416 7.85461C0.00201416 12.1911 3.51751 15.7081 7.85451 15.7081C8.18851 15.7081 8.51601 15.6786 8.84001 15.6396L8.75801 14.6881C8.75801 14.6881 9.11851 13.2751 9.11851 13.2271C9.11801 13.1786 8.75751 11.9586 8.75751 11.9586Z" fill="#5F5A76"/>
<path fill-rule="evenodd" clip-rule="evenodd" d="M2.91997 2.5325L4.31497 2.338L4.95797 1.9855L5.68147 2.194L6.83747 2.13L7.23347 1.5075L7.81097 1.6025L9.21347 1.471L9.59997 1.045L10.145 0.681L10.916 0.797L11.197 0.7545C10.1815 0.2765 9.05147 0 7.85397 0C5.41647 0 3.23697 1.111 1.79797 2.8555H1.80197L2.91997 2.5325ZM8.18597 0.781L8.98797 0.3395L9.50297 0.637L8.75747 1.2045L8.04547 1.276L7.72497 1.068L8.18597 0.781ZM6.16447 0.993L5.81047 0.8455C5.79964 0.933568 5.35232 1.22613 5.3008 1.25983C5.29762 1.26191 5.29594 1.263 5.29597 1.263L5.81047 1.564L6.88047 1.283L6.62797 0.8455L6.16447 0.993Z" fill="#5F5A76"/>
</svg>
