<svg width="34" height="17" viewBox="0 0 34 17" fill="none" xmlns="http://www.w3.org/2000/svg">
<path fill-rule="evenodd" clip-rule="evenodd" d="M4 17C1.79086 17 0 15.2091 0 13V5.78997C0 3.58083 1.79086 1.78997 4 1.78997H15.1468L16.5131 0.176865C16.7128 -0.058939 17.0764 -0.058939 17.2761 0.176865L18.6424 1.78997H30C32.2091 1.78997 34 3.58083 34 5.78997V13C34 15.2091 32.2091 17 30 17H4Z" fill="url(#paint0_linear)"/>
<path d="M12.5581 13H11.2934L8.15868 7.99023V13H6.89892V5.89062H8.15868L11.3032 10.9102V5.89062H12.5581V13ZM18.6992 13H14.0361V5.89062H18.6748V6.90625H15.2959V8.83984H18.2061V9.83594H15.2959V11.9893H18.6992V13ZM22.9165 5.89062H23.9761L25.2993 11.2324L26.3784 5.89062H27.6333L26.0024 13H24.772L23.4487 7.84863L22.1011 13H20.8755L19.2398 5.89062H20.4946L21.5835 11.2178L22.9165 5.89062Z" fill="#FFEEEE"/>
<defs>
<linearGradient id="paint0_linear" x1="51" y1="8.5" x2="37.4" y2="35.7" gradientUnits="userSpaceOnUse">
<stop stop-color="#FC3832"/>
<stop offset="1" stop-color="#F2C314"/>
</linearGradient>
</defs>
</svg>
